<svg viewBox="0 0 256 256" width='1rem' height='1rem' xmlns="http://www.w3.org/2000/svg">
  <g transform="translate(128 128) scale(.72)">
      <g transform="translate(-175.05 -175.05) scale(3.89)" stroke-linecap="round">
      <path d="m2.653 89.174c-0.256 0-0.512-0.098-0.707-0.293-0.391-0.391-0.391-1.023 0-1.414l40.243-40.243c0.391-0.391 1.023-0.391 1.414 0s0.391 1.023 0 1.414l-40.243 40.243c-0.196 0.195-0.452 0.293-0.707 0.293z"/>
      <path d="m79.421 42.886c-0.42 0-0.83 0.04-1.234 0.098-0.471-2.513-2.028-4.641-4.165-5.88-2.078 2.778-4.36 5.624-6.854 8.539l0.246 9.709h19.741c0.573-1.155 0.903-2.452 0.903-3.828 0-4.771-3.867-8.638-8.637-8.638z" fill="#f8cc1d"/>
      <path d="m23.801 25.879c1.726-1.726 4.122-2.689 6.557-2.619l15.765 0.4c2.773-2.373 5.481-4.546 8.131-6.543-2.083-3.049-5.585-5.052-9.557-5.052-0.563 0-1.111 0.054-1.653 0.132-1.003-5.367-5.704-9.43-11.361-9.43s-10.358 4.063-11.362 9.428c-0.541-0.078-1.09-0.132-1.653-0.132-6.389 0-11.568 5.179-11.568 11.568 0 1.844 0.443 3.581 1.21 5.128h12.611l2.88-2.88z" fill="#f8cc1d"/>
      <path d="m66.501 30.498c-1.764 0-3.423-0.687-4.67-1.935-1.248-1.248-1.936-2.906-1.936-4.67 0-1.765 0.688-3.423 1.936-4.671 1.247-1.248 2.906-1.935 4.67-1.935 1.765 0 3.424 0.687 4.671 1.935 1.248 1.248 1.935 2.906 1.935 4.671 0 1.764-0.687 3.423-1.935 4.67-1.247 1.248-2.907 1.935-4.671 1.935zm0-11.211c-1.229 0-2.386 0.479-3.256 1.349s-1.35 2.026-1.35 3.257c0 1.23 0.479 2.386 1.35 3.256 0.87 0.87 2.026 1.349 3.256 1.349s2.387-0.479 3.257-1.349 1.349-2.026 1.349-3.256-0.479-2.387-1.349-3.257c-0.871-0.87-2.027-1.349-3.257-1.349z"/>
      <path d="m89.987 4.147c0.084-0.903-0.235-1.789-0.877-2.431s-1.534-0.961-2.431-0.877c-11.629 1.089-25.508 8.523-41.408 22.147l-15.861-0.402c-2.377-0.071-4.688 0.867-6.362 2.541l-7.246 7.246c-0.804 0.804-1.11 1.941-0.817 3.04s1.123 1.933 2.221 2.231l11.27 3.056 7.056 7.055c0.391 0.391 1.023 0.391 1.414 0s0.391-1.023 0-1.414l-6.547-6.547c22.511-23.127 41.505-35.56 56.467-36.961 0.309-0.024 0.611 0.081 0.83 0.3s0.328 0.522 0.299 0.83c-1.4 14.961-13.835 33.956-36.961 56.467l-6.548-6.548c-0.391-0.391-1.023-0.391-1.414 0s-0.391 1.023 0 1.414l7.057 7.056 3.056 11.269c0.297 1.099 1.132 1.929 2.231 2.222 0.274 0.073 0.551 0.109 0.825 0.109 0.82-1e-3 1.611-0.323 2.214-0.927l7.245-7.245c1.676-1.676 2.603-3.994 2.542-6.362l-0.402-15.861c13.623-15.9 21.057-29.779 22.147-41.408zm-61.297 34.537-10.96-2.972c-0.579-0.157-0.76-0.623-0.812-0.815-0.051-0.193-0.125-0.688 0.299-1.111l7.246-7.246c1.29-1.289 3.08-2 4.897-1.956l13.674 0.346c-4.617 4.075-9.401 8.663-14.344 13.754zm37.552 22.783c0.047 1.822-0.666 3.607-1.956 4.897l-7.245 7.245c-0.424 0.424-0.917 0.35-1.11 0.299-0.193-0.052-0.659-0.233-0.816-0.813l-2.972-10.959c5.09-4.943 9.679-9.726 13.754-14.343l0.345 13.674z"/>
      <path d="m25.031 78.36c-0.256 0-0.512-0.098-0.707-0.293-0.391-0.391-0.391-1.023 0-1.414l16.346-16.347c0.391-0.391 1.023-0.391 1.414 0s0.391 1.023 0 1.414l-16.346 16.347c-0.196 0.195-0.452 0.293-0.707 0.293z" fill="#f8cc1d"/>
      <path d="m8.92 70.356c-0.256 0-0.512-0.098-0.707-0.293-0.391-0.391-0.391-1.023 0-1.414l19.811-19.811c0.391-0.391 1.023-0.391 1.414 0s0.391 1.023 0 1.414l-19.811 19.811c-0.196 0.196-0.451 0.293-0.707 0.293z" fill="#f8cc1d"/>
      <path d="m35.868 79.835c-0.256 0-0.512-0.098-0.707-0.293-0.391-0.391-0.391-1.023 0-1.414l8.834-8.835c0.391-0.391 1.023-0.391 1.414 0s0.391 1.023 0 1.414l-8.834 8.835c-0.195 0.195-0.451 0.293-0.707 0.293z" fill="#f8cc1d"/>
      <path d="m13.346 53.618c-0.256 0-0.512-0.098-0.707-0.293-0.391-0.391-0.391-1.023 0-1.414l7.224-7.223c0.391-0.391 1.023-0.391 1.414 0s0.391 1.023 0 1.415l-7.224 7.223c-0.195 0.194-0.451 0.292-0.707 0.292z" fill="#f8cc1d"/>
      <path d="m19.829 85.689c-0.552 0-1-0.447-1-1v-4.256c0-0.553 0.448-1 1-1s1 0.447 1 1v4.256c0 0.553-0.447 1-1 1z" fill="#f8cc1d"/>
      <path d="m21.957 83.561h-4.255c-0.552 0-1-0.447-1-1s0.448-1 1-1h4.255c0.552 0 1 0.447 1 1s-0.448 1-1 1z" fill="#f8cc1d"/>
      <path d="m8.137 60.955c-0.552 0-1-0.447-1-1v-4.256c0-0.553 0.448-1 1-1s1 0.447 1 1v4.256c0 0.553-0.447 1-1 1z" fill="#f8cc1d"/>
      <path d="m10.265 58.827h-4.255c-0.552 0-1-0.447-1-1s0.448-1 1-1h4.255c0.552 0 1 0.447 1 1s-0.448 1-1 1z" fill="#f8cc1d"/>
      <path d="m3.194 78.277c-0.853 0-1.655-0.333-2.259-0.937-0.603-0.602-0.935-1.405-0.935-2.257s0.332-1.655 0.935-2.259c1.246-1.244 3.272-1.244 4.517 0 0.604 0.604 0.936 1.406 0.936 2.259s-0.332 1.654-0.935 2.258c-0.604 0.603-1.406 0.936-2.259 0.936zm0-4.388c-0.306 0-0.611 0.116-0.844 0.349-0.226 0.226-0.35 0.525-0.35 0.845 0 0.318 0.124 0.618 0.35 0.844 0.451 0.451 1.238 0.451 1.688 0 0.226-0.226 0.35-0.525 0.35-0.844s-0.124-0.619-0.35-0.845c-0.233-0.232-0.539-0.349-0.844-0.349z" fill="#f8cc1d"/>
      <path d="m30.658 87.236c-0.818 0-1.636-0.312-2.258-0.934-0.604-0.603-0.936-1.405-0.936-2.259 0-0.853 0.332-1.655 0.936-2.258 1.245-1.244 3.271-1.244 4.517 0 0.604 0.603 0.936 1.405 0.936 2.258 0 0.854-0.332 1.656-0.936 2.259-0.623 0.623-1.441 0.934-2.259 0.934zm0-4.385c-0.306 0-0.611 0.116-0.844 0.349-0.226 0.226-0.35 0.525-0.35 0.844s0.124 0.619 0.35 0.845c0.466 0.465 1.223 0.465 1.688 0 0.226-0.226 0.35-0.525 0.35-0.845 0-0.318-0.124-0.618-0.35-0.844-0.232-0.232-0.538-0.349-0.844-0.349z" fill="#f8cc1d"/>
    </g>
  </g>
</svg>
